<?xml version="1.0" encoding="UTF-8"?>
<svg id="Laag_1" data-name="Laag 1" xmlns="http://www.w3.org/2000/svg" viewBox="0 0 466.64 155.16">
  <defs>
    <style>
      .cls-1 {
        fill: #ffd100;
      }

      .cls-2 {
        fill: #f7f4ef;
      }
    </style>
  </defs>
  <path class="cls-2" d="M37.14,87.55h-11.61v38.47H1.65V16.58h35.32c13.04,0,22.52,2.76,28.44,8.29,5.91,5.53,8.87,14.48,8.87,26.86,0,14.59-4.53,24.76-13.6,30.51l17.25,43.78h-25.7l-15.09-38.47ZM25.53,70.64h8.62c5.86,0,10.03-1.38,12.52-4.15,2.49-2.76,3.73-7.07,3.73-12.93,0-3.87-.44-6.91-1.33-9.12-.89-2.21-2.49-3.81-4.81-4.81-2.32-.99-5.69-1.49-10.11-1.49h-8.62v32.5Z"/>
  <path class="cls-2" d="M90.61,115.66c-6.47-7.79-9.7-18.16-9.7-31.09s3.23-23.3,9.7-31.09c6.47-7.79,15.5-11.69,27.11-11.69s20.64,3.9,27.11,11.69c6.47,7.79,9.7,18.16,9.7,31.09s-3.23,23.3-9.7,31.09c-6.47,7.79-15.5,11.69-27.11,11.69s-20.64-3.9-27.11-11.69ZM127.51,100.07c2.1-3.81,3.15-8.98,3.15-15.5s-1.05-11.69-3.15-15.5c-2.1-3.81-5.36-5.72-9.78-5.72s-7.68,1.94-9.78,5.8c-2.1,3.87-3.15,9.01-3.15,15.42s1.05,11.55,3.15,15.42c2.1,3.87,5.36,5.8,9.78,5.8s7.68-1.91,9.78-5.72Z"/>
  <path class="cls-2" d="M229.15,105.29v21.06c-2.32.66-5.8,1-10.45,1-5.53,0-10.89-1.05-16.08-3.15-5.2-2.1-10.01-5.19-14.43-9.29l-6.96,11.11h-27.36c8.95-12.71,15.64-22.49,20.06-29.35-4.09-7.63-7.27-16.28-9.53-25.95-2.27-9.67-3.4-20.09-3.4-31.26,0-14.37,2.49-24.54,7.46-30.51,4.97-5.97,11.99-8.95,21.06-8.95s16.28,2.85,20.98,8.54c4.7,5.69,7.05,14.51,7.05,26.45,0,7.19-.41,13.51-1.24,18.99s-2.52,11.44-5.06,17.91c-2.54,6.47-6.36,14.29-11.44,23.46,6.3,6.96,13.87,10.45,22.72,10.45,2.1,0,4.31-.17,6.63-.5ZM188.19,71.8c3.09-6.63,5.11-12.41,6.05-17.33.94-4.92,1.41-10.86,1.41-17.83,0-5.97-.44-9.97-1.33-12.02-.89-2.04-2.43-3.07-4.64-3.07s-3.48,1.24-4.15,3.73c-.66,2.49-.99,7.21-.99,14.18,0,11.61,1.22,22.39,3.65,32.33Z"/>
  <path class="cls-2" d="M466.26,93.36h-48.92c.88,4.31,2.74,7.46,5.56,9.45,2.82,1.99,6.88,2.98,12.19,2.98,10.06,0,19.12-1.27,27.19-3.81v21.06c-8.18,2.88-17.36,4.31-27.53,4.31-14.59,0-25.26-3.67-32-11.03-6.74-7.35-10.11-17.93-10.11-31.75s3.48-24.96,10.45-32.09c6.96-7.13,16.3-10.7,28.02-10.7s19.82,3.26,25.95,9.78c6.13,6.52,9.2,16.58,9.2,30.18v11.61ZM442.55,76.44c0-4.86-.91-8.26-2.74-10.2-1.82-1.93-4.72-2.9-8.7-2.9s-7.3.97-9.62,2.9c-2.32,1.94-3.81,5.34-4.48,10.2h25.54Z"/>
  <path class="cls-2" d="M292.65,104.3c-4.91-1.64-9.33-4.62-13.25-8.96,5.08-9.17,8.9-17,11.44-23.46,2.54-6.47,4.23-12.44,5.06-17.91.83-5.47,1.24-11.8,1.24-18.99,0-11.94-2.35-20.75-7.05-26.45C285.39,2.85,278.4,0,269.11,0s-16.09,2.98-21.06,8.95c-4.97,5.97-7.46,16.14-7.46,30.51,0,11.17,1.13,21.58,3.4,31.26,2.26,9.67,5.44,18.32,9.53,25.95-4.42,6.86-11.11,16.64-20.06,29.35h27.36l6.96-11.11c4.42,4.09,9.23,7.19,14.43,9.29.7.28,1.41.54,2.11.79.26-7.93,3.36-15.16,8.32-20.68ZM273.84,54.47c-.94,4.92-2.96,10.7-6.05,17.33-2.43-9.95-3.65-20.73-3.65-32.33,0-6.96.33-11.69.99-14.18.66-2.49,2.04-3.73,4.15-3.73,2.21,0,3.76,1.02,4.64,3.07.88,2.05,1.33,6.05,1.33,12.02,0,6.96-.47,12.91-1.41,17.83Z"/>
  <path class="cls-1" d="M316.92,117.69c4.62,0,8.38,3.76,8.38,8.38s-3.76,8.38-8.38,8.38-8.38-3.76-8.38-8.38,3.76-8.38,8.38-8.38M316.92,102.38c-13.08,0-23.69,10.61-23.69,23.69s10.61,23.69,23.69,23.69,23.69-10.61,23.69-23.69-10.61-23.69-23.69-23.69h0Z"/>
  <g>
    <path class="cls-2" d="M336.02,26.7c3.04,2.32,7.27,3.48,12.69,3.48s9.64-1.16,12.69-3.48c3.04-2.32,4.56-5.69,4.56-10.11s-1.52-7.79-4.56-10.11c-3.04-2.32-7.27-3.48-12.69-3.48s-9.65,1.16-12.69,3.48c-3.04,2.32-4.56,5.69-4.56,10.11s1.52,7.79,4.56,10.11Z"/>
    <path class="cls-2" d="M379.22,105.79c-6.19,0-10.84-2.82-13.93-8.46-3.1-5.64-4.64-14.48-4.64-26.53v-27.69h-23.88v24.54c-1.33,9.07-3.68,17.63-7.05,25.7-.31.74-.66,1.52-1.02,2.31,6.56,2.55,12.1,7.17,15.81,13.05.01-.03.03-.07.05-.11,3.32,5.86,7.63,10.45,12.93,13.76,5.31,3.32,11.66,4.97,19.07,4.97,2.65,0,5.06-.19,7.21-.58,2.15-.39,3.67-.8,4.56-1.24v-20.56c-2.21.55-5.25.83-9.12.83Z"/>
  </g>
</svg>